# xmcd CD database file
#
# Track frame offsets:
#	150
#	11383
#	27155
#	39917
#	56873
#	71560
#	87333
#	100738
#	111672
#	131757
#	148738
#	162253
#	175109
#	187356
#	201340
#	219245
#	232593
#	244797
#	258561
#	271342
#
# Disc length: 3771 seconds
#
# Revision: 0
# Processed by: cddbd v1.5.2PL0 Copyright (c) Steve Scherf et al.
# Submitted via: CDex 1.70beta2
#
DISCID=220eb914
DTITLE=compilation - Blues Formidable
DYEAR=2012
DGENRE=Blues
TTITLE0=1 John Lee Hooker: Boom boom
TTITLE1=2 Screamin' Jay Hawkins: I put a spell on you
TTITLE2=3 Howlin Wolf: I'va got a woman
TTITLE3=4 Billie Holiday: Lady sings the blues
TTITLE4=5 Muddy Waters: Baby please don't go
TTITLE5=6 Jimmy Witherspoon: Ain't nobody business
TTITLE6=7 Big Bill Bronzy: Wee wee hours blues
TTITLE7=8 Jimmy Rodgers: That's all right
TTITLE8=9 Luois Armstrong: Basin street blues
TTITLE9=10 Ella Fitzgerald: Dearie blues
TTITLE10=11 Mildred Bailey: Arkansas blues
TTITLE11=12 Robert Johnson: Rambling on my mind
TTITLE12=13 T-Bone Wamker: No worry blues
TTITLE13=14 Arthur big boy Crudup: My mama don't allow me
TTITLE14=15 James Cotton: v-8 Ford
TTITLE15=16 Lightnin Hopkins: Mojo hand
TTITLE16=17 Louis Jordan: Caldonia
TTITLE17=18 Pearl Bailey: Frankie and Johnny
TTITLE18=19 Willie Mae Big Mama Thornton: Hound dog
TTITLE19=20 Johnny Otis: Willie and the hand jive
EXTD=YEAR: 2012
EXTT0=
EXTT1=
EXTT2=
EXTT3=
EXTT4=
EXTT5=
EXTT6=
EXTT7=
EXTT8=
EXTT9=
EXTT10=
EXTT11=
EXTT12=
EXTT13=
EXTT14=
EXTT15=
EXTT16=
EXTT17=
EXTT18=
EXTT19=
PLAYORDER=
